<?xml version="1.0" encoding="UTF-8"?>
<svg xmlns="http://www.w3.org/2000/svg" xmlns:xlink="http://www.w3.org/1999/xlink" width="185px" height="150px" viewBox="0 0 185 150" version="1.1">
<g id="surface1">
<path style=" stroke:none;fill-rule:nonzero;fill:rgb(94.509804%,51.372549%,76.470588%);fill-opacity:1;" d="M 162.820312 150 L 22.320312 150 C 16.464844 150.039062 10.835938 147.730469 6.679688 143.585938 C 2.527344 139.441406 0.191406 133.804688 0.191406 127.925781 L 0.191406 22.144531 C 0.171875 16.277344 2.480469 10.644531 6.605469 6.488281 C 10.730469 2.335938 16.335938 0 22.179688 0 L 162.679688 0 C 174.824219 0 184.667969 9.882812 184.667969 22.074219 L 184.667969 127.855469 C 184.707031 140.019531 174.9375 149.921875 162.820312 150 Z M 22.320312 8.957031 C 15.023438 8.878906 9.050781 14.75 8.972656 22.074219 L 8.972656 127.855469 C 9.011719 135.152344 14.914062 141.042969 22.179688 141.042969 L 162.679688 141.042969 C 169.890625 141.003906 175.742188 135.167969 175.816406 127.925781 L 175.816406 22.144531 C 175.816406 14.820312 169.902344 8.886719 162.609375 8.886719 Z M 22.320312 8.957031 "/>
<path style=" stroke:none;fill-rule:nonzero;fill:rgb(94.509804%,51.372549%,76.470588%);fill-opacity:1;" d="M 92.5 88.222656 C 91.59375 88.25 90.707031 87.976562 89.972656 87.445312 L 2.085938 25.671875 C 0.105469 24.277344 -0.394531 21.542969 0.964844 19.535156 C 1.644531 18.550781 2.691406 17.878906 3.867188 17.679688 C 5.042969 17.480469 6.253906 17.769531 7.214844 18.476562 L 92.640625 78.421875 L 177.996094 18.476562 C 179.234375 17.347656 181.007812 17.035156 182.558594 17.667969 C 184.109375 18.296875 185.160156 19.765625 185.265625 21.441406 C 185.371094 23.117188 184.511719 24.707031 183.054688 25.527344 L 95.027344 87.445312 C 94.289062 87.96875 93.402344 88.238281 92.5 88.222656 Z M 92.5 88.222656 "/>
</g>
</svg>
