<svg id="Capa_1" data-name="Capa 1" xmlns="http://www.w3.org/2000/svg" viewBox="0 0 26.28 21.27"><defs><style>.cls-1{fill:#f183c3;}</style></defs><path class="cls-1" d="M23.15,21.27h-20A3.13,3.13,0,0,1,0,18.14v-15A3.13,3.13,0,0,1,3.13,0h20a3.13,3.13,0,0,1,3.13,3.13v15A3.13,3.13,0,0,1,23.15,21.27Zm-20-20A1.88,1.88,0,0,0,1.25,3.13v15A1.88,1.88,0,0,0,3.13,20h20A1.88,1.88,0,0,0,25,18.14v-15a1.88,1.88,0,0,0-1.88-1.88Z"/><path class="cls-1" d="M13.14,12.51a.59.59,0,0,1-.36-.11L.27,3.64a.63.63,0,0,1-.16-.87A.63.63,0,0,1,1,2.62l12.16,8.5,12.15-8.5a.62.62,0,1,1,.72,1L13.5,12.4A.61.61,0,0,1,13.14,12.51Z"/></svg>