<?xml version="1.0" encoding="UTF-8"?>
<svg xmlns="http://www.w3.org/2000/svg" xmlns:xlink="http://www.w3.org/1999/xlink" width="76px" height="150px" viewBox="0 0 76 152" version="1.1">
<g id="surface1">
<path style=" stroke:none;fill-rule:nonzero;fill:rgb(94.509804%,51.372549%,76.470588%);fill-opacity:1;" d="M 69.722656 6.71875 L 69.722656 30.996094 L 54.617188 30.996094 C 49.261719 30.996094 48.164062 33.191406 48.164062 38.679688 L 48.164062 51.851562 L 69.722656 51.851562 L 67.613281 75.605469 L 48.296875 75.605469 L 48.296875 145.28125 L 20.285156 145.28125 L 20.285156 75.605469 L 5.75 75.605469 L 5.75 52.027344 L 20.285156 52.027344 L 20.285156 33.367188 C 20.285156 15.804688 29.636719 6.71875 50.402344 6.71875 L 69.722656 6.71875 M 75.472656 0.964844 L 50.402344 0.964844 C 20.722656 0.964844 14.488281 18.527344 14.488281 33.367188 L 14.488281 46.230469 L 0 46.230469 L 0 81.355469 L 14.488281 81.355469 L 14.488281 151.035156 L 54.003906 151.035156 L 54.003906 81.179688 L 72.96875 81.179688 L 73.410156 75.914062 L 75.515625 52.511719 L 76.042969 46.230469 L 54.089844 46.230469 L 54.089844 38.679688 C 54.089844 37.800781 54.089844 37.1875 54.089844 36.792969 L 75.5625 36.792969 L 75.5625 0.964844 Z M 75.472656 0.964844 "/>
</g>
</svg>
