<svg id="Capa_1" data-name="Capa 1" xmlns="http://www.w3.org/2000/svg" viewBox="0 0 24.96 24.96"><defs><style>.cls-1{fill:#f183c3;}</style></defs><path class="cls-1" d="M18.39,25H6.57A6.57,6.57,0,0,1,0,18.39V6.57A6.58,6.58,0,0,1,6.57,0H18.39A6.57,6.57,0,0,1,25,6.57V18.39A6.57,6.57,0,0,1,18.39,25ZM6.57,1.31A5.27,5.27,0,0,0,1.31,6.57V18.39a5.27,5.27,0,0,0,5.26,5.26H18.39a5.27,5.27,0,0,0,5.26-5.26V6.57a5.27,5.27,0,0,0-5.26-5.26Z"/><path class="cls-1" d="M12.53,17.82A5.39,5.39,0,0,1,11.74,7.1a5.23,5.23,0,0,1,1.58,0,5.36,5.36,0,0,1,4.54,4.54h0a5.39,5.39,0,0,1-4.54,6.12A5.25,5.25,0,0,1,12.53,17.82Zm0-9.46a3.81,3.81,0,0,0-.59,0,4.07,4.07,0,1,0,4.62,3.43h0a4,4,0,0,0-4-3.47Z"/><path class="cls-1" d="M19,6.64A.67.67,0,0,1,18.33,6,.66.66,0,0,1,19,5.32h0a.66.66,0,0,1,0,1.32Z"/></svg>