<?xml version="1.0" encoding="UTF-8"?>
<svg xmlns="http://www.w3.org/2000/svg" xmlns:xlink="http://www.w3.org/1999/xlink" width="150px" height="150px" viewBox="0 0 150 150" version="1.1">
<g id="surface1">
<path style=" stroke:none;fill-rule:nonzero;fill:rgb(94.509804%,51.372549%,76.470588%);fill-opacity:1;" d="M 110.515625 150.242188 L 39.484375 150.242188 C 28.96875 150.242188 18.890625 146.046875 11.480469 138.589844 C 4.066406 131.132812 -0.0625 121.03125 0 110.515625 L 0 39.484375 C 0.03125 17.691406 17.691406 0.03125 39.484375 0 L 110.515625 0 C 121.03125 -0.0625 131.132812 4.066406 138.589844 11.480469 C 146.046875 18.890625 150.242188 28.96875 150.242188 39.484375 L 150.242188 110.515625 C 150.304688 121.070312 146.140625 131.214844 138.675781 138.675781 C 131.214844 146.140625 121.070312 150.304688 110.515625 150.242188 Z M 39.484375 7.871094 C 22.039062 7.90625 7.90625 22.039062 7.871094 39.484375 L 7.871094 110.515625 C 7.90625 127.960938 22.039062 142.09375 39.484375 142.128906 L 110.515625 142.128906 C 127.960938 142.09375 142.09375 127.960938 142.128906 110.515625 L 142.128906 39.484375 C 142.09375 22.039062 127.960938 7.90625 110.515625 7.871094 Z M 39.484375 7.871094 "/>
<path style=" stroke:none;fill-rule:nonzero;fill:rgb(94.509804%,51.372549%,76.470588%);fill-opacity:1;" d="M 75.300781 107.089844 C 58.363281 107.054688 44.3125 93.972656 43.066406 77.082031 C 41.824219 60.1875 53.804688 45.1875 70.554688 42.667969 C 73.699219 42.1875 76.902344 42.1875 80.046875 42.667969 C 94.1875 44.707031 105.292969 55.8125 107.332031 69.953125 C 109.949219 87.640625 97.734375 104.101562 80.046875 106.730469 C 78.476562 106.96875 76.890625 107.089844 75.300781 107.089844 Z M 75.300781 50.242188 C 74.121094 50.148438 72.933594 50.148438 71.753906 50.242188 C 58.390625 52.210938 49.152344 64.648438 51.128906 78.011719 C 53.101562 91.378906 65.539062 100.609375 78.902344 98.632812 C 92.269531 96.65625 101.5 84.21875 99.519531 70.851562 C 97.914062 58.835938 87.605469 49.894531 75.480469 50 Z M 75.300781 50.242188 "/>
<path style=" stroke:none;fill-rule:nonzero;fill:rgb(94.509804%,51.372549%,76.470588%);fill-opacity:1;" d="M 114.183594 39.902344 C 112.027344 39.90625 110.253906 38.210938 110.15625 36.058594 C 110.125 34.972656 110.535156 33.925781 111.296875 33.152344 C 112.054688 32.382812 113.097656 31.953125 114.183594 31.972656 C 116.375 31.972656 118.148438 33.746094 118.148438 35.9375 C 118.148438 38.128906 116.375 39.902344 114.183594 39.902344 Z M 114.183594 39.902344 "/>
</g>
</svg>
