<?xml version="1.0" encoding="UTF-8"?>
<svg xmlns="http://www.w3.org/2000/svg" xmlns:xlink="http://www.w3.org/1999/xlink" width="150px" height="150px" viewBox="0 0 150 150" version="1.1">
<g id="surface1">
<path style=" stroke:none;fill-rule:evenodd;fill:rgb(94.509804%,51.372549%,76.470588%);fill-opacity:1;" d="M 149.914062 71.195312 C 148.105469 32.128906 116.089844 1.28125 76.980469 0.925781 C 37.875 0.574219 5.304688 30.839844 2.796875 69.871094 C 2.796875 70.90625 2.796875 72.003906 2.796875 73.039062 C 2.757812 86.351562 6.390625 99.414062 13.289062 110.800781 L 0.0273438 149.882812 L 40.785156 136.914062 C 63.5 149.382812 91.097656 149.007812 113.460938 135.917969 C 135.824219 122.828125 149.664062 98.953125 149.914062 73.039062 Z M 76.296875 134.609375 C 64.210938 134.625 52.386719 131.097656 42.285156 124.460938 L 18.535156 131.898438 L 26.257812 108.839844 C 18.667969 98.367188 14.628906 85.742188 14.730469 72.808594 C 14.714844 70.882812 14.8125 68.960938 15.015625 67.042969 C 18.375 35.328125 45.273438 11.351562 77.167969 11.648438 C 109.058594 11.949219 135.507812 36.425781 138.269531 68.199219 C 138.355469 69.792969 138.355469 71.386719 138.269531 72.980469 C 138.140625 107.058594 110.429688 134.589844 76.355469 134.492188 Z M 76.296875 134.609375 "/>
<path style=" stroke:none;fill-rule:evenodd;fill:rgb(94.509804%,51.372549%,76.470588%);fill-opacity:1;" d="M 110.136719 87.796875 C 108.292969 86.933594 99.414062 82.550781 97.800781 82.03125 C 96.1875 81.515625 94.917969 81.167969 93.707031 82.957031 C 92.496094 84.742188 89.039062 88.71875 87.941406 89.929688 C 86.847656 91.140625 85.808594 91.3125 84.023438 90.390625 C 78.710938 88.28125 73.796875 85.277344 69.496094 81.515625 C 65.574219 77.921875 62.210938 73.765625 59.523438 69.175781 C 58.484375 67.390625 59.523438 66.410156 60.328125 65.546875 C 61.136719 64.679688 62.117188 63.414062 63.039062 62.375 L 63.671875 61.511719 C 64.105469 60.828125 64.488281 60.113281 64.824219 59.378906 C 65.347656 58.40625 65.347656 57.234375 64.824219 56.265625 C 64.363281 55.34375 60.730469 46.523438 59.058594 42.949219 C 57.386719 39.375 56.0625 40.007812 54.96875 40.007812 C 53.871094 40.007812 52.71875 40.007812 51.507812 40.007812 C 49.671875 40.0625 47.9375 40.875 46.722656 42.257812 C 42.660156 46.039062 40.359375 51.347656 40.382812 56.898438 C 40.425781 58.964844 40.734375 61.019531 41.304688 63.007812 C 42.726562 67.480469 44.910156 71.675781 47.761719 75.402344 C 48.683594 76.554688 60.269531 95.292969 78.601562 102.441406 C 96.933594 109.589844 96.933594 107.226562 100.277344 106.9375 C 105.363281 105.957031 109.789062 102.855469 112.441406 98.40625 C 113.625 95.726562 113.984375 92.757812 113.480469 89.875 C 113.132812 89.179688 111.921875 88.71875 110.136719 87.796875 Z M 110.136719 87.796875 "/>
</g>
</svg>
